Plot:

The psychological thriller "Murk" tells the story of Jacob, who is investigating into the circumstances surrounding his sister's death on her wedding night



General
Complete name                    : Mørke.mkv
Format                           : Matroska
File size                        : 1.43 GiB
Duration                         : 1h 59mn
Overall bit rate                 : 1 701 Kbps


Video
ID                               : 1
Format                           : AVC
Codec ID                         : V_MPEG4/ISO/AVC
Duration                         : 1h 59mn
Bit rate                         : 1 220 Kbps
Width                            : 720 pixels
Height                           : 556 pixels
Display aspect ratio             : 16:9
Frame rate                       : 25.000 fps
Resolution                       : 8 bits
Colorimetry                      : 4:2:0
Scan type                        : Progressive
Bits/(Pixel*Frame)               : 0.122
Stream size                      : 1.02 GiB (72%)
Writing library                  : x264 core 79


Audio
ID                               : 2
Format                           : AC-3
Format/Info                      : Audio Coding 3
Codec ID                         : A_AC3
Duration                         : 1h 59mn
Bit rate mode                    : Constant
Bit rate                         : 448 Kbps
Channel(s)                       : 6 channels
Channel positions                : Front: L C R, Surround: L R, LFE
Sampling rate                    : 48.0 KHz
Stream size                      : 384 MiB (26%)
Language                         : Danish

Text #1
Language                         : Danish

Text #2
Language                         : Finnish

Text #3
Language                         : Norwegian

Text #4
Language                         : Swedish

Text #5
Language                         : English



